# xmcd CD database file
#
# Track frame offsets:
#	150
#	11325
#	19195
#	29685
#	46167
#	58282
#	72100
#	87502
#	99590
#	118515
#	140697
#	163797
#	175690
#	192075
#	209257
#
# Disc length: 3020 seconds
#
# Revision: 0
# Processed by: cddbd v1.5.1PL2 Copyright (c) Steve Scherf et al.
# Submitted via: CDex 1.51
#
DISCID=ce0bca0f
DTITLE=Martin and Scott - Two Hollow Sticks
DYEAR=2005
DGENRE=New Age
TTITLE0=Number Six Train
TTITLE1=Tripping Over Rainbows
TTITLE2=Thoughts of Naomi
TTITLE3=So Sweetly She Smiled
TTITLE4=Tongue and Cheek
TTITLE5=Champagne Toast
TTITLE6=Twas An Old Scottish Tale
TTITLE7=The Bushwhacker
TTITLE8=Calling All Mothers
TTITLE9=The Ancient Canyon Speaks
TTITLE10=Tonight The World Show
TTITLE11=We Are One
TTITLE12=Deep In The Forest
TTITLE13=Tossed In Time
TTITLE14=A Face In The Moon
EXTD=YEAR: 2005
EXTT0=
EXTT1=
EXTT2=
EXTT3=
EXTT4=
EXTT5=
EXTT6=
EXTT7=
EXTT8=
EXTT9=
EXTT10=
EXTT11=
EXTT12=
EXTT13=
EXTT14=
PLAYORDER=
